<?xml version="1.0" encoding="UTF-8"?>
<svg xmlns="http://www.w3.org/2000/svg" xmlns:xlink="http://www.w3.org/1999/xlink" width="540pt" height="449.999984pt" viewBox="0 0 540 449.999984" version="1.2">
<g id="surface1">
<path style=" stroke:none;fill-rule:nonzero;fill:rgb(94.119263%,63.919067%,50.19989%);fill-opacity:1;" d="M 158.28125 156.765625 L 170.144531 148.378906 L 172.335938 151.289062 L 164.703125 159.324219 L 158.28125 156.765625 "/>
<path style=" stroke:none;fill-rule:nonzero;fill:rgb(94.119263%,63.919067%,50.19989%);fill-opacity:1;" d="M 158.28125 156.765625 L 168.085938 159.242188 L 157.097656 166.046875 Z M 158.28125 156.765625 "/>
<path style=" stroke:none;fill-rule:nonzero;fill:rgb(94.119263%,63.919067%,50.19989%);fill-opacity:1;" d="M 133.546875 167.15625 L 156.964844 164.65625 L 160.523438 176.683594 L 139.042969 185.703125 L 133.546875 167.15625 "/>
<path style=" stroke:none;fill-rule:nonzero;fill:rgb(94.119263%,63.919067%,50.19989%);fill-opacity:1;" d="M 65.878906 140.835938 L 129.472656 183.21875 C 141.242188 190.910156 146.976562 178.546875 140.886719 168.46875 C 131.410156 152.761719 96.753906 113.972656 96.753906 113.972656 L 65.878906 140.835938 "/>
<path style=" stroke:none;fill-rule:nonzero;fill:rgb(97.648621%,66.268921%,9.01947%);fill-opacity:1;" d="M 75.167969 154.480469 C 84.621094 153.324219 104.640625 138.921875 109.648438 128.136719 C 114.664062 117.347656 97.78125 109.15625 86.996094 104.144531 C 76.207031 99.132812 63.398438 103.8125 58.390625 114.597656 C 53.378906 125.386719 64.378906 149.472656 75.167969 154.480469 "/>
<path style=" stroke:none;fill-rule:nonzero;fill:rgb(94.119263%,63.919067%,50.19989%);fill-opacity:1;" d="M 131.496094 184.597656 C 136.328125 186.878906 142.089844 184.808594 144.367188 179.980469 C 146.648438 175.148438 144.582031 169.382812 139.746094 167.105469 C 134.917969 164.828125 129.152344 166.890625 126.875 171.722656 C 124.597656 176.558594 126.660156 182.320312 131.496094 184.597656 "/>
<path style=" stroke:none;fill-rule:nonzero;fill:rgb(94.119263%,63.919067%,50.19989%);fill-opacity:1;" d="M 156.964844 164.65625 L 160.523438 176.683594 L 172.515625 174.195312 L 168.085938 159.242188 L 156.964844 164.65625 "/>
<path style=" stroke:none;fill-rule:nonzero;fill:rgb(94.119263%,63.919067%,50.19989%);fill-opacity:1;" d="M 173.777344 159.609375 L 176.761719 169.6875 L 172.515625 174.195312 L 168.085938 159.242188 L 173.777344 159.609375 "/>
<path style=" stroke:none;fill-rule:nonzero;fill:rgb(24.308777%,10.198975%,23.529053%);fill-opacity:1;" d="M 148.066406 177.976562 C 147.1875 175.609375 148.398438 172.976562 150.769531 172.097656 C 153.136719 171.222656 155.765625 172.433594 156.644531 174.808594 C 157.519531 177.175781 156.308594 179.804688 153.941406 180.683594 C 151.566406 181.554688 148.9375 180.347656 148.066406 177.976562 Z M 149.625 137.5625 C 150.683594 135.265625 153.398438 134.261719 155.695312 135.316406 C 157.992188 136.375 158.992188 139.09375 157.9375 141.382812 C 156.878906 143.679688 154.164062 144.683594 151.867188 143.628906 C 149.574219 142.574219 148.570312 139.855469 149.625 137.5625 Z M 173.292969 201.59375 C 174.347656 199.300781 177.066406 198.292969 179.359375 199.351562 C 181.65625 200.40625 182.660156 203.125 181.605469 205.417969 C 180.546875 207.710938 177.828125 208.71875 175.535156 207.660156 C 173.242188 206.605469 172.238281 203.890625 173.292969 201.59375 Z M 173.300781 168.648438 C 168.332031 155.210938 175.203125 140.292969 188.640625 135.328125 C 202.078125 130.359375 216.996094 137.226562 221.964844 150.664062 C 226.929688 164.105469 220.0625 179.023438 206.625 183.988281 C 193.1875 188.957031 178.269531 182.085938 173.300781 168.648438 Z M 210.078125 206.523438 C 209.199219 204.152344 210.410156 201.519531 212.78125 200.644531 C 215.148438 199.769531 217.78125 200.984375 218.65625 203.351562 C 219.53125 205.71875 218.320312 208.347656 215.949219 209.226562 C 213.582031 210.105469 210.953125 208.890625 210.078125 206.523438 Z M 237.328125 177.929688 C 238.382812 175.636719 241.097656 174.628906 243.394531 175.6875 C 245.6875 176.742188 246.691406 179.460938 245.636719 181.753906 C 244.582031 184.050781 241.863281 185.050781 239.570312 183.996094 C 237.273438 182.9375 236.269531 180.222656 237.328125 177.929688 Z M 221.972656 117.722656 C 220.917969 120.015625 218.203125 121.019531 215.902344 119.964844 C 213.609375 118.90625 212.605469 116.1875 213.660156 113.894531 C 214.71875 111.601562 217.4375 110.597656 219.726562 111.652344 C 222.023438 112.710938 223.027344 115.425781 221.972656 117.722656 Z M 238.621094 144.507812 C 237.746094 142.136719 238.957031 139.507812 241.328125 138.632812 C 243.695312 137.757812 246.324219 138.96875 247.199219 141.339844 C 248.078125 143.707031 246.867188 146.339844 244.496094 147.214844 C 242.128906 148.089844 239.496094 146.878906 238.621094 144.507812 Z M 185.1875 112.789062 C 186.0625 115.160156 184.851562 117.792969 182.480469 118.667969 C 180.117188 119.542969 177.484375 118.335938 176.609375 115.964844 C 175.734375 113.59375 176.941406 110.964844 179.3125 110.089844 C 181.683594 109.210938 184.3125 110.421875 185.1875 112.789062 Z M 141.011719 192.574219 C 145.953125 201.09375 152.644531 208.191406 160.4375 213.558594 L 153.394531 228.867188 L 173.824219 238.269531 L 180.875 222.964844 C 190.023438 225.394531 199.761719 225.863281 209.449219 224.074219 L 215.289062 239.875 L 236.390625 232.074219 L 230.546875 216.277344 C 239.070312 211.335938 246.164062 204.648438 251.53125 196.847656 L 266.835938 203.894531 L 276.246094 183.460938 L 260.9375 176.417969 C 263.371094 167.265625 263.835938 157.527344 262.050781 147.839844 L 277.851562 142.003906 L 270.050781 120.902344 L 254.253906 126.742188 C 249.3125 118.21875 242.621094 111.125 234.824219 105.753906 L 241.871094 90.449219 L 221.4375 81.046875 L 214.390625 96.351562 C 205.242188 93.917969 195.503906 93.453125 185.8125 95.238281 L 179.976562 79.441406 L 158.878906 87.238281 L 164.714844 103.039062 C 156.195312 107.976562 149.101562 114.667969 143.730469 122.464844 L 128.425781 115.421875 L 119.015625 135.851562 L 134.324219 142.898438 C 131.894531 152.046875 131.425781 161.789062 133.214844 171.472656 L 117.414062 177.3125 L 125.210938 198.414062 L 141.011719 192.574219 "/>
<path style=" stroke:none;fill-rule:nonzero;fill:rgb(94.119263%,63.919067%,50.19989%);fill-opacity:1;" d="M 168.84375 173.226562 L 165.855469 163.152344 L 173.214844 157.722656 L 177.644531 172.675781 L 168.84375 173.226562 "/>
<path style=" stroke:none;fill-rule:nonzero;fill:rgb(94.119263%,63.919067%,50.19989%);fill-opacity:1;" d="M 60.917969 108.09375 L 61.578125 81.566406 L 87.703125 82.144531 L 94.601562 108.078125 L 60.917969 108.09375 "/>
<path style=" stroke:none;fill-rule:nonzero;fill:rgb(94.119263%,63.919067%,50.19989%);fill-opacity:1;" d="M 45.429688 50.921875 C 45.441406 74.523438 74.980469 96.492188 94.675781 96.480469 C 114.371094 96.472656 116.210938 62.859375 114.980469 39.289062 C 113.789062 16.398438 91.335938 12.320312 71.640625 12.589844 C 49.242188 12.894531 45.417969 27.316406 45.429688 50.921875 "/>
<path style=" stroke:none;fill-rule:nonzero;fill:rgb(97.648621%,66.268921%,9.01947%);fill-opacity:1;" d="M 33.148438 449.460938 L 20.621094 422.164062 L 21.910156 416.320312 L 7.316406 410.289062 L 4.34375 412.671875 L 4.453125 419.097656 L 0.0585938 429.71875 L 33.148438 449.460938 "/>
<path style=" stroke:none;fill-rule:nonzero;fill:rgb(23.529053%,60.778809%,76.078796%);fill-opacity:1;" d="M 44.476562 319.230469 L 74.984375 331.84375 L 56.628906 377.519531 L 20.976562 417.636719 L 5.042969 411.050781 L 26.304688 364.980469 L 44.476562 319.230469 "/>
<path style=" stroke:none;fill-rule:nonzero;fill:rgb(23.529053%,60.778809%,76.078796%);fill-opacity:1;" d="M 102.902344 260.777344 L 74.125 333.722656 L 45.929688 321.425781 L 46.441406 258.480469 L 102.902344 260.777344 "/>
<path style=" stroke:none;fill-rule:nonzero;fill:rgb(23.529053%,60.778809%,76.078796%);fill-opacity:1;" d="M 74.125 333.722656 C 70.667969 342.074219 61.09375 346.046875 52.742188 342.59375 C 44.390625 339.136719 40.414062 329.5625 43.867188 321.207031 C 47.324219 312.855469 56.898438 308.886719 65.253906 312.339844 C 73.601562 315.792969 77.578125 325.367188 74.125 333.722656 "/>
<path style=" stroke:none;fill-rule:nonzero;fill:rgb(99.21875%,86.669922%,6.269836%);fill-opacity:1;" d="M 124.023438 459.007812 L 102.007812 438.582031 L 100.964844 432.691406 L 85.171875 432.699219 L 83.339844 436.039062 L 85.898438 441.933594 L 85.90625 453.425781 L 124.023438 459.007812 "/>
<path style=" stroke:none;fill-rule:nonzero;fill:rgb(29.40979%,77.249146%,95.689392%);fill-opacity:1;" d="M 84.667969 334.351562 L 117.675781 334.332031 L 118.195312 383.554688 L 100.601562 434.261719 L 83.363281 434.269531 L 85.382812 383.574219 L 84.667969 334.351562 "/>
<path style=" stroke:none;fill-rule:nonzero;fill:rgb(29.40979%,77.249146%,95.689392%);fill-opacity:1;" d="M 114.511719 257.40625 L 117.496094 331.089844 L 85.078125 335.234375 L 61.464844 276.886719 L 114.511719 257.40625 "/>
<path style=" stroke:none;fill-rule:nonzero;fill:rgb(29.40979%,77.249146%,95.689392%);fill-opacity:1;" d="M 117.597656 336.394531 C 117.605469 345.4375 110.277344 352.769531 101.238281 352.773438 C 92.199219 352.777344 84.867188 345.453125 84.859375 336.410156 C 84.855469 327.371094 92.183594 320.042969 101.222656 320.039062 C 110.261719 320.03125 117.59375 327.355469 117.597656 336.394531 "/>
<path style=" stroke:none;fill-rule:nonzero;fill:rgb(29.40979%,77.249146%,95.689392%);fill-opacity:1;" d="M 43.761719 246.242188 C 43.769531 266.753906 60.40625 283.375 80.921875 283.363281 C 101.433594 283.351562 118.050781 266.714844 118.039062 246.203125 C 118.027344 225.6875 101.394531 209.070312 80.882812 209.082031 C 60.371094 209.09375 43.75 225.730469 43.761719 246.242188 "/>
<path style=" stroke:none;fill-rule:nonzero;fill:rgb(99.21875%,86.669922%,6.269836%);fill-opacity:1;" d="M 45.664062 159.957031 L 114.507812 159.703125 L 120.984375 233.234375 C 123.644531 255.335938 107.144531 258.296875 87.988281 260.367188 C 65.878906 261.851562 39.644531 258.921875 41.648438 233.492188 L 45.664062 159.957031 "/>
<path style=" stroke:none;fill-rule:nonzero;fill:rgb(99.21875%,86.669922%,6.269836%);fill-opacity:1;" d="M 43.734375 145.25 C 43.746094 174.210938 44.863281 199.601562 73.820312 199.585938 C 102.78125 199.570312 118.570312 175.449219 118.554688 146.488281 C 118.539062 117.527344 105.925781 102.375 76.964844 102.390625 C 48.007812 102.402344 43.714844 116.292969 43.734375 145.25 "/>
<path style=" stroke:none;fill-rule:nonzero;fill:rgb(94.119263%,63.919067%,50.19989%);fill-opacity:1;" d="M 160.59375 211.109375 L 175.117188 210.84375 L 175.296875 214.484375 L 164.464844 216.839844 L 160.59375 211.109375 "/>
<path style=" stroke:none;fill-rule:nonzero;fill:rgb(94.119263%,63.919067%,50.19989%);fill-opacity:1;" d="M 160.59375 211.109375 L 167.308594 218.671875 L 154.398438 218.121094 Z M 160.59375 211.109375 "/>
<path style=" stroke:none;fill-rule:nonzero;fill:rgb(94.119263%,63.919067%,50.19989%);fill-opacity:1;" d="M 98.464844 191.605469 L 155.0625 216.898438 L 151.25 228.851562 L 92.582031 210.03125 L 98.464844 191.605469 "/>
<path style=" stroke:none;fill-rule:nonzero;fill:rgb(94.119263%,63.919067%,50.19989%);fill-opacity:1;" d="M 57.296875 131.792969 L 86.066406 202.597656 C 91.476562 215.574219 103.167969 208.574219 103.800781 196.816406 C 104.789062 178.5 97.929688 126.9375 97.929688 126.9375 L 57.296875 131.792969 "/>
<path style=" stroke:none;fill-rule:nonzero;fill:rgb(97.648621%,66.268921%,9.01947%);fill-opacity:1;" d="M 57.304688 148.304688 C 65.777344 152.660156 90.425781 152.003906 100.636719 145.902344 C 110.847656 139.796875 101.492188 123.53125 95.386719 113.320312 C 89.28125 103.113281 76.058594 99.785156 65.851562 105.890625 C 55.640625 111.992188 51.203125 138.09375 57.304688 148.304688 "/>
<path style=" stroke:none;fill-rule:nonzero;fill:rgb(94.119263%,63.919067%,50.19989%);fill-opacity:1;" d="M 86.960938 204.875 C 89.675781 209.480469 95.605469 211.007812 100.207031 208.292969 C 104.808594 205.578125 106.335938 199.652344 103.621094 195.050781 C 100.90625 190.449219 94.976562 188.917969 90.378906 191.632812 C 85.773438 194.347656 84.246094 200.277344 86.960938 204.875 "/>
<path style=" stroke:none;fill-rule:nonzero;fill:rgb(94.119263%,63.919067%,50.19989%);fill-opacity:1;" d="M 155.0625 216.898438 L 151.25 228.851562 L 162.566406 233.527344 L 167.308594 218.671875 L 155.0625 216.898438 "/>
<path style=" stroke:none;fill-rule:nonzero;fill:rgb(94.119263%,63.919067%,50.19989%);fill-opacity:1;" d="M 181.449219 226.179688 L 178.25 236.191406 L 162.566406 233.527344 L 167.308594 218.671875 L 181.449219 226.179688 "/>
<path style=" stroke:none;fill-rule:nonzero;fill:rgb(36.468506%,16.468811%,37.249756%);fill-opacity:1;" d="M 41.429688 28.300781 C 41.445312 -0.00390625 125.855469 5.6875 125.855469 5.6875 C 133.390625 9.222656 117.863281 38.53125 117.863281 38.53125 C 107.136719 43.203125 95.382812 43.777344 85.289062 42.851562 C 85.769531 44.613281 83.816406 63.433594 83.816406 65.382812 C 83.824219 74.910156 79.625 48.246094 71.8125 48.941406 C 57.105469 51.242188 64.460938 80.828125 64.460938 80.828125 C 43.296875 78.503906 41.410156 56.609375 41.429688 28.300781 "/>
<path style=" stroke:none;fill-rule:nonzero;fill:rgb(94.119263%,63.919067%,50.19989%);fill-opacity:1;" d="M 313.335938 197.867188 L 310.445312 208.03125 L 320.074219 202.664062 Z M 313.335938 197.867188 "/>
<path style=" stroke:none;fill-rule:nonzero;fill:rgb(94.119263%,63.919067%,50.19989%);fill-opacity:1;" d="M 363.03125 183.5 L 320.074219 202.664062 L 323.398438 213.246094 L 368.148438 199.820312 L 363.03125 183.5 "/>
<path style=" stroke:none;fill-rule:nonzero;fill:rgb(94.119263%,63.919067%,50.19989%);fill-opacity:1;" d="M 414.953125 140.089844 L 374.207031 194.003906 C 366.617188 203.855469 358.226562 195.207031 360.375 185.011719 C 363.714844 169.140625 381.660156 138.445312 381.660156 138.445312 L 414.953125 140.089844 "/>
<path style=" stroke:none;fill-rule:nonzero;fill:rgb(97.648621%,66.268921%,9.01947%);fill-opacity:1;" d="M 407.429688 166.429688 C 398.507812 170.453125 379.238281 169.835938 371.433594 162.78125 C 368.515625 146.445312 375.765625 130.339844 382.824219 122.539062 C 389.875 114.738281 401.921875 114.128906 409.726562 121.183594 C 417.523438 128.238281 414.476562 158.625 407.429688 166.429688 "/>
<path style=" stroke:none;fill-rule:nonzero;fill:rgb(94.119263%,63.919067%,50.19989%);fill-opacity:1;" d="M 368.148438 199.820312 C 363.640625 201.234375 358.84375 198.726562 357.429688 194.21875 C 356.015625 189.710938 358.519531 184.910156 363.03125 183.5 C 367.539062 182.085938 372.335938 184.589844 373.75 189.097656 C 375.164062 193.605469 372.65625 198.40625 368.148438 199.820312 "/>
<path style=" stroke:none;fill-rule:nonzero;fill:rgb(94.119263%,63.919067%,50.19989%);fill-opacity:1;" d="M 320.074219 202.664062 L 323.398438 213.246094 L 313.371094 217.335938 L 309.242188 204.179688 L 320.074219 202.664062 "/>
<path style=" stroke:none;fill-rule:nonzero;fill:rgb(94.119263%,63.919067%,50.19989%);fill-opacity:1;" d="M 302.082031 208.8125 L 304.867188 217.683594 L 313.371094 217.335938 L 309.242188 204.179688 L 302.082031 208.8125 "/>
<path style=" stroke:none;fill-rule:nonzero;fill:rgb(29.40979%,77.249146%,95.689392%);fill-opacity:1;" d="M 328.949219 169.6875 C 328.492188 166.351562 327.179688 163.292969 325.242188 160.730469 L 344.300781 141.671875 C 351.019531 149.203125 355.300781 158.953125 355.910156 169.6875 Z M 344.300781 203.015625 L 325.242188 183.960938 C 327.179688 181.394531 328.492188 178.332031 328.949219 175.003906 L 355.910156 175.003906 C 355.300781 185.738281 351.019531 195.484375 344.300781 203.015625 Z M 312.527344 218.382812 L 312.527344 191.425781 C 315.859375 190.964844 318.921875 189.652344 321.488281 187.714844 L 340.542969 206.777344 C 333.011719 213.492188 323.265625 217.773438 312.527344 218.382812 Z M 300.996094 172.34375 C 300.996094 167.441406 304.972656 163.46875 309.871094 163.46875 C 314.769531 163.46875 318.742188 167.441406 318.742188 172.34375 C 318.742188 177.246094 314.769531 181.21875 309.871094 181.21875 C 304.972656 181.21875 300.996094 177.246094 300.996094 172.34375 Z M 307.210938 218.382812 C 296.480469 217.773438 286.730469 213.492188 279.199219 206.777344 L 298.253906 187.714844 C 300.816406 189.652344 303.878906 190.964844 307.210938 191.425781 Z M 275.4375 203.015625 C 268.722656 195.484375 264.441406 185.738281 263.832031 175.003906 L 290.789062 175.003906 C 291.25 178.332031 292.5625 181.394531 294.5 183.960938 Z M 275.4375 141.671875 L 294.5 160.730469 C 292.5625 163.292969 291.25 166.351562 290.789062 169.6875 L 263.832031 169.6875 C 264.441406 158.953125 268.722656 149.203125 275.4375 141.671875 Z M 307.210938 126.304688 L 307.210938 153.265625 C 303.878906 153.722656 300.816406 155.035156 298.253906 156.972656 L 279.199219 137.914062 C 286.730469 131.195312 296.480469 126.917969 307.210938 126.304688 Z M 312.527344 126.304688 C 323.265625 126.917969 333.011719 131.195312 340.542969 137.914062 L 321.488281 156.972656 C 318.921875 155.035156 315.859375 153.722656 312.527344 153.265625 Z M 381.421875 182.234375 L 381.421875 162.457031 L 366.609375 162.457031 C 366.324219 160.804688 365.964844 159.179688 365.539062 157.582031 L 374.167969 154.082031 L 368.71875 140.644531 L 360.085938 144.144531 C 359.132812 142.449219 358.097656 140.804688 356.976562 139.222656 L 367.457031 128.746094 L 353.46875 114.753906 L 342.996094 125.234375 C 341.410156 124.117188 339.765625 123.082031 338.066406 122.128906 L 341.570312 113.496094 L 328.136719 108.046875 L 324.636719 116.667969 C 323.039062 116.246094 321.410156 115.890625 319.761719 115.605469 L 319.761719 100.792969 L 299.980469 100.792969 L 299.980469 115.605469 C 298.328125 115.890625 296.707031 116.246094 295.101562 116.667969 L 291.605469 108.046875 L 278.171875 113.496094 L 281.671875 122.128906 C 279.976562 123.082031 278.328125 124.117188 276.746094 125.234375 L 266.269531 114.753906 L 252.28125 128.746094 L 262.761719 139.222656 C 261.640625 140.804688 260.605469 142.453125 259.65625 144.144531 L 251.023438 140.644531 L 245.570312 154.082031 L 254.195312 157.582031 C 253.773438 159.179688 253.417969 160.804688 253.132812 162.457031 L 238.320312 162.457031 L 238.320312 182.234375 L 253.132812 182.234375 C 253.417969 183.882812 253.773438 185.511719 254.195312 187.109375 L 245.570312 190.609375 L 251.023438 204.042969 L 259.65625 200.542969 C 260.605469 202.238281 261.640625 203.882812 262.761719 205.46875 L 252.28125 215.945312 L 266.269531 229.933594 L 276.746094 219.453125 C 278.328125 220.570312 279.976562 221.605469 281.671875 222.558594 L 278.171875 231.191406 L 291.605469 236.644531 L 295.101562 228.015625 C 296.707031 228.441406 298.328125 228.796875 299.980469 229.082031 L 299.980469 243.894531 L 319.761719 243.894531 L 319.761719 229.082031 C 321.410156 228.796875 323.039062 228.441406 324.636719 228.015625 L 328.136719 236.644531 L 341.570312 231.191406 L 338.066406 222.558594 C 339.765625 221.605469 341.410156 220.570312 342.992188 219.453125 L 353.46875 229.933594 L 367.457031 215.945312 L 356.976562 205.46875 C 358.097656 203.882812 359.132812 202.238281 360.085938 200.542969 L 368.71875 204.042969 L 374.167969 190.609375 L 365.539062 187.109375 C 365.964844 185.511719 366.324219 183.882812 366.609375 182.234375 L 381.421875 182.234375 "/>
<path style=" stroke:none;fill-rule:nonzero;fill:rgb(94.119263%,63.919067%,50.19989%);fill-opacity:1;" d="M 427.933594 113.121094 L 427.375 88.464844 L 405.890625 89.015625 L 400.226562 113.121094 L 427.933594 113.121094 "/>
<path style=" stroke:none;fill-rule:nonzero;fill:rgb(94.119263%,63.919067%,50.19989%);fill-opacity:1;" d="M 441.699219 61.179688 C 441.699219 83.113281 414.261719 103.542969 395.960938 103.542969 C 377.65625 103.542969 375.929688 72.3125 377.058594 50.40625 C 378.152344 29.136719 399.019531 25.332031 417.324219 25.574219 C 438.140625 25.84375 441.699219 39.246094 441.699219 61.179688 "/>
<path style=" stroke:none;fill-rule:nonzero;fill:rgb(23.529053%,60.778809%,76.078796%);fill-opacity:1;" d="M 462.671875 318.5625 L 444.0625 335.097656 L 475.507812 372.605469 L 515.363281 407.554688 L 526.246094 397.886719 L 496.226562 354.199219 L 462.671875 318.5625 "/>
<path style=" stroke:none;fill-rule:nonzero;fill:rgb(23.529053%,60.778809%,76.078796%);fill-opacity:1;" d="M 390.6875 259.375 L 440.582031 332.058594 L 458.945312 314.910156 L 449.996094 247.582031 L 390.6875 259.375 "/>
<path style=" stroke:none;fill-rule:nonzero;fill:rgb(23.529053%,60.778809%,76.078796%);fill-opacity:1;" d="M 462.433594 317.546875 C 468.496094 324.363281 468.90625 333.886719 463.359375 338.820312 C 457.800781 343.75 448.394531 342.222656 442.339844 335.40625 C 436.28125 328.589844 435.867188 319.066406 441.414062 314.132812 C 446.96875 309.199219 456.378906 310.726562 462.433594 317.546875 "/>
<path style=" stroke:none;fill-rule:nonzero;fill:rgb(97.648621%,66.268921%,9.01947%);fill-opacity:1;" d="M 509.164062 442.746094 L 517.667969 411.390625 L 514.050781 405.515625 L 525.835938 395.308594 L 530.132812 396.835938 L 532.175781 403.046875 L 539.941406 411.785156 L 509.164062 442.746094 "/>
<path style=" stroke:none;fill-rule:nonzero;fill:rgb(29.40979%,77.249146%,95.689392%);fill-opacity:1;" d="M 391.707031 335.296875 L 366.808594 335.296875 L 365.402344 384.226562 L 371.976562 436.820312 L 386.539062 436.820312 L 393.117188 384.226562 L 391.707031 335.296875 "/>
<path style=" stroke:none;fill-rule:nonzero;fill:rgb(29.40979%,77.249146%,95.689392%);fill-opacity:1;" d="M 377.214844 243.238281 L 366.230469 330.710938 L 391.339844 330.089844 L 429.382812 273.816406 L 377.214844 243.238281 "/>
<path style=" stroke:none;fill-rule:nonzero;fill:rgb(29.40979%,77.249146%,95.689392%);fill-opacity:1;" d="M 392.203125 334.378906 C 392.203125 343.5 386.183594 350.894531 378.757812 350.894531 C 371.335938 350.894531 365.316406 343.5 365.316406 334.378906 C 365.316406 325.257812 371.335938 317.867188 378.757812 317.867188 C 386.183594 317.867188 392.203125 325.257812 392.203125 334.378906 "/>
<path style=" stroke:none;fill-rule:nonzero;fill:rgb(99.21875%,86.669922%,6.269836%);fill-opacity:1;" d="M 343.972656 459.007812 L 371.15625 441.21875 L 372.355469 434.421875 L 387.945312 434.621094 L 390.144531 438.621094 L 387.546875 444.617188 L 387.546875 456.308594 L 343.972656 459.007812 "/>
<path style=" stroke:none;fill-rule:nonzero;fill:rgb(29.40979%,77.249146%,95.689392%);fill-opacity:1;" d="M 453.765625 234.945312 C 453.765625 258.496094 436.390625 277.585938 414.957031 277.585938 C 393.527344 277.585938 376.15625 258.496094 376.15625 234.945312 C 376.15625 211.398438 393.527344 192.308594 414.957031 192.308594 C 436.390625 192.308594 453.765625 211.398438 453.765625 234.945312 "/>
<path style=" stroke:none;fill-rule:nonzero;fill:rgb(99.21875%,86.669922%,6.269836%);fill-opacity:1;" d="M 450.023438 150.246094 L 384.105469 169.785156 C 384.105469 169.785156 384.683594 197.949219 369.140625 229.199219 C 372.40625 253.9375 414.355469 255.425781 414.355469 255.425781 C 414.355469 255.425781 456.308594 253.9375 459.574219 229.199219 C 444.027344 197.949219 450.023438 150.246094 450.023438 150.246094 "/>
<path style=" stroke:none;fill-rule:nonzero;fill:rgb(99.21875%,86.669922%,6.269836%);fill-opacity:1;" d="M 450.023438 150.246094 C 450.023438 172.28125 434.054688 190.140625 414.359375 190.140625 C 394.660156 190.140625 378.691406 172.28125 378.691406 150.246094 C 378.691406 128.210938 394.660156 110.347656 414.359375 110.347656 C 434.054688 110.347656 450.023438 128.210938 450.023438 150.246094 "/>
<path style=" stroke:none;fill-rule:nonzero;fill:rgb(94.119263%,63.919067%,50.19989%);fill-opacity:1;" d="M 329.441406 210.535156 L 317.445312 215.136719 L 318.507812 218.179688 L 330.164062 216.257812 L 329.441406 210.535156 "/>
<path style=" stroke:none;fill-rule:nonzero;fill:rgb(94.119263%,63.919067%,50.19989%);fill-opacity:1;" d="M 329.441406 210.535156 L 328.164062 221.023438 L 336.84375 214.230469 Z M 329.441406 210.535156 "/>
<path style=" stroke:none;fill-rule:nonzero;fill:rgb(94.119263%,63.919067%,50.19989%);fill-opacity:1;" d="M 388.167969 182.152344 L 336.84375 214.230469 L 341.773438 224.167969 L 395.757812 197.484375 L 388.167969 182.152344 "/>
<path style=" stroke:none;fill-rule:nonzero;fill:rgb(94.119263%,63.919067%,50.19989%);fill-opacity:1;" d="M 432.730469 131.210938 L 400.832031 190.796875 C 394.871094 201.707031 385.242188 194.464844 385.78125 184.0625 C 386.617188 167.859375 399.578125 134.757812 399.578125 134.757812 L 432.730469 131.210938 "/>
<path style=" stroke:none;fill-rule:nonzero;fill:rgb(97.648621%,66.268921%,9.01947%);fill-opacity:1;" d="M 429.382812 158.402344 C 421.191406 163.761719 402.054688 166.140625 393.253906 160.382812 C 387.839844 144.699219 392.503906 127.660156 398.265625 118.859375 C 404.023438 110.058594 415.828125 107.589844 424.628906 113.347656 C 433.429688 119.105469 435.140625 149.601562 429.382812 158.402344 "/>
<path style=" stroke:none;fill-rule:nonzero;fill:rgb(94.119263%,63.919067%,50.19989%);fill-opacity:1;" d="M 395.757812 197.484375 C 391.527344 199.578125 386.394531 197.84375 384.300781 193.613281 C 382.203125 189.378906 383.933594 184.25 388.167969 182.152344 C 392.402344 180.054688 397.53125 181.789062 399.625 186.023438 C 401.726562 190.253906 399.992188 195.386719 395.757812 197.484375 "/>
<path style=" stroke:none;fill-rule:nonzero;fill:rgb(94.119263%,63.919067%,50.19989%);fill-opacity:1;" d="M 336.84375 214.230469 L 341.773438 224.167969 L 332.492188 229.765625 L 326.378906 217.40625 L 336.84375 214.230469 "/>
<path style=" stroke:none;fill-rule:nonzero;fill:rgb(94.119263%,63.919067%,50.19989%);fill-opacity:1;" d="M 312.667969 226.203125 L 316.792969 234.535156 L 332.492188 229.765625 L 326.378906 217.40625 L 312.667969 226.203125 "/>
<path style=" stroke:none;fill-rule:nonzero;fill:rgb(94.119263%,63.919067%,50.19989%);fill-opacity:1;" d="M 313.335938 197.867188 L 305.488281 200.214844 L 306.0625 203.386719 L 313.78125 203.628906 L 313.335938 197.867188 "/>
<path style=" stroke:none;fill-rule:nonzero;fill:rgb(94.119263%,63.919067%,50.19989%);fill-opacity:1;" d="M 312.71875 215.785156 L 310.445312 208.535156 L 303.492188 208.8125 L 305.488281 217.683594 L 312.71875 215.785156 "/>
<path style=" stroke:none;fill-rule:nonzero;fill:rgb(36.468506%,16.468811%,37.249756%);fill-opacity:1;" d="M 422.464844 56.007812 C 422.464844 40.164062 429.757812 27.320312 438.75 27.320312 C 447.75 27.320312 455.039062 40.164062 455.039062 56.007812 C 455.039062 56.292969 455.039062 56.570312 455.035156 56.855469 C 459.648438 58.820312 462.964844 64.027344 462.964844 70.160156 C 462.964844 73.46875 461.992188 76.496094 460.390625 78.90625 C 461.992188 81.316406 462.964844 84.351562 462.964844 87.65625 C 462.964844 95.46875 457.597656 101.808594 450.976562 101.808594 C 449.539062 101.808594 448.171875 101.492188 446.898438 100.953125 C 444.5 102.589844 441.726562 103.542969 438.75 103.542969 C 429.757812 103.542969 422.464844 94.933594 422.464844 84.316406 C 422.464844 80.066406 423.652344 76.15625 425.621094 72.972656 C 423.644531 68.222656 422.464844 62.355469 422.464844 56.007812 "/>
<path style=" stroke:none;fill-rule:nonzero;fill:rgb(36.468506%,16.468811%,37.249756%);fill-opacity:1;" d="M 367.3125 31.585938 C 376.179688 35.070312 380.632812 27.695312 386.429688 22.601562 C 395.101562 14.988281 408.394531 13.960938 419.167969 15.96875 C 426.84375 17.402344 439.25 21.53125 439.25 31.40625 C 439.25 37.570312 446.035156 41.421875 437.132812 44.1875 C 434.152344 37.359375 429.988281 52.195312 424.816406 53.371094 C 420.675781 58.527344 391.949219 50.351562 386.652344 49.230469 C 379.398438 47.695312 364.445312 41.8125 367.3125 31.585938 "/>
</g>
</svg>
